<mxfile host="Electron" agent="Mozilla/5.0 (Windows NT 10.0; Win64; x64) AppleWebKit/537.36 (KHTML, like Gecko) draw.io/26.0.9 Chrome/128.0.6613.186 Electron/32.2.5 Safari/537.36" version="26.0.9">
  <diagram name="Page-1" id="k2zMVF7ijsQ42sUqn46F">
    <mxGraphModel dx="1900" dy="1721" grid="1" gridSize="10" guides="1" tooltips="1" connect="1" arrows="1" fold="1" page="1" pageScale="1" pageWidth="850" pageHeight="1100" math="0" shadow="0">
      <root>
        <mxCell id="0" />
        <mxCell id="1" parent="0" />
        <mxCell id="I8hgk64ySSG1_GCGq1iT-1" value="Controller" style="rounded=1;whiteSpace=wrap;html=1;fillColor=#008a00;fontColor=#ffffff;strokeColor=#005700;" parent="1" vertex="1">
          <mxGeometry x="40" y="100" width="120" height="60" as="geometry" />
        </mxCell>
        <mxCell id="Hzh83zoLfARzIkc0ZNQP-6" value="" style="edgeStyle=orthogonalEdgeStyle;rounded=0;orthogonalLoop=1;jettySize=auto;html=1;" edge="1" parent="1" source="I8hgk64ySSG1_GCGq1iT-2" target="Hzh83zoLfARzIkc0ZNQP-5">
          <mxGeometry relative="1" as="geometry" />
        </mxCell>
        <mxCell id="Hzh83zoLfARzIkc0ZNQP-15" value="" style="edgeStyle=orthogonalEdgeStyle;rounded=0;orthogonalLoop=1;jettySize=auto;html=1;" edge="1" parent="1" source="I8hgk64ySSG1_GCGq1iT-2" target="Hzh83zoLfARzIkc0ZNQP-14">
          <mxGeometry relative="1" as="geometry" />
        </mxCell>
        <mxCell id="I8hgk64ySSG1_GCGq1iT-2" value="Service" style="rounded=1;whiteSpace=wrap;html=1;fillColor=#008a00;fontColor=#ffffff;strokeColor=#005700;" parent="1" vertex="1">
          <mxGeometry x="40" y="230" width="120" height="60" as="geometry" />
        </mxCell>
        <mxCell id="Hzh83zoLfARzIkc0ZNQP-31" style="edgeStyle=orthogonalEdgeStyle;rounded=0;orthogonalLoop=1;jettySize=auto;html=1;exitX=1;exitY=0.75;exitDx=0;exitDy=0;entryX=0;entryY=0.5;entryDx=0;entryDy=0;" edge="1" parent="1" source="I8hgk64ySSG1_GCGq1iT-3" target="Hzh83zoLfARzIkc0ZNQP-30">
          <mxGeometry relative="1" as="geometry" />
        </mxCell>
        <mxCell id="I8hgk64ySSG1_GCGq1iT-3" value="Repository" style="rounded=1;whiteSpace=wrap;html=1;fillColor=#008a00;fontColor=#ffffff;strokeColor=#005700;" parent="1" vertex="1">
          <mxGeometry x="40" y="370" width="120" height="60" as="geometry" />
        </mxCell>
        <mxCell id="Hzh83zoLfARzIkc0ZNQP-41" style="edgeStyle=orthogonalEdgeStyle;rounded=0;orthogonalLoop=1;jettySize=auto;html=1;exitX=1;exitY=1;exitDx=0;exitDy=0;entryX=0;entryY=0.5;entryDx=0;entryDy=0;" edge="1" parent="1" source="Hzh83zoLfARzIkc0ZNQP-1" target="Hzh83zoLfARzIkc0ZNQP-39">
          <mxGeometry relative="1" as="geometry" />
        </mxCell>
        <mxCell id="Hzh83zoLfARzIkc0ZNQP-42" style="edgeStyle=orthogonalEdgeStyle;rounded=0;orthogonalLoop=1;jettySize=auto;html=1;exitX=1;exitY=0.25;exitDx=0;exitDy=0;entryX=0;entryY=0.5;entryDx=0;entryDy=0;" edge="1" parent="1" source="Hzh83zoLfARzIkc0ZNQP-1" target="Hzh83zoLfARzIkc0ZNQP-40">
          <mxGeometry relative="1" as="geometry" />
        </mxCell>
        <mxCell id="Hzh83zoLfARzIkc0ZNQP-1" value="Entity" style="rounded=1;whiteSpace=wrap;html=1;fillColor=#008a00;fontColor=#ffffff;strokeColor=#005700;" vertex="1" parent="1">
          <mxGeometry x="40" y="660" width="120" height="60" as="geometry" />
        </mxCell>
        <mxCell id="Hzh83zoLfARzIkc0ZNQP-46" style="edgeStyle=orthogonalEdgeStyle;rounded=0;orthogonalLoop=1;jettySize=auto;html=1;exitX=1;exitY=0.5;exitDx=0;exitDy=0;entryX=0;entryY=0.5;entryDx=0;entryDy=0;" edge="1" parent="1" source="Hzh83zoLfARzIkc0ZNQP-2" target="Hzh83zoLfARzIkc0ZNQP-43">
          <mxGeometry relative="1" as="geometry" />
        </mxCell>
        <mxCell id="Hzh83zoLfARzIkc0ZNQP-47" style="edgeStyle=orthogonalEdgeStyle;rounded=0;orthogonalLoop=1;jettySize=auto;html=1;exitX=0;exitY=0;exitDx=0;exitDy=0;entryX=1;entryY=0.5;entryDx=0;entryDy=0;" edge="1" parent="1" source="Hzh83zoLfARzIkc0ZNQP-2" target="Hzh83zoLfARzIkc0ZNQP-44">
          <mxGeometry relative="1" as="geometry" />
        </mxCell>
        <mxCell id="Hzh83zoLfARzIkc0ZNQP-48" style="edgeStyle=orthogonalEdgeStyle;rounded=0;orthogonalLoop=1;jettySize=auto;html=1;exitX=0;exitY=0.75;exitDx=0;exitDy=0;" edge="1" parent="1" source="Hzh83zoLfARzIkc0ZNQP-2" target="Hzh83zoLfARzIkc0ZNQP-45">
          <mxGeometry relative="1" as="geometry" />
        </mxCell>
        <mxCell id="Hzh83zoLfARzIkc0ZNQP-2" value="Dto" style="rounded=1;whiteSpace=wrap;html=1;fillColor=#008a00;fontColor=#ffffff;strokeColor=#005700;" vertex="1" parent="1">
          <mxGeometry x="40" y="520" width="120" height="60" as="geometry" />
        </mxCell>
        <mxCell id="Hzh83zoLfARzIkc0ZNQP-3" value="Package" style="rounded=1;whiteSpace=wrap;html=1;fillColor=#008a00;fontColor=#ffffff;strokeColor=#005700;" vertex="1" parent="1">
          <mxGeometry x="-460" y="560" width="80" height="30" as="geometry" />
        </mxCell>
        <mxCell id="Hzh83zoLfARzIkc0ZNQP-4" value="Sub-Package" style="rounded=1;whiteSpace=wrap;html=1;fillColor=#60a917;fontColor=#ffffff;strokeColor=#2D7600;" vertex="1" parent="1">
          <mxGeometry x="-460" y="600" width="80" height="30" as="geometry" />
        </mxCell>
        <mxCell id="Hzh83zoLfARzIkc0ZNQP-11" value="" style="edgeStyle=orthogonalEdgeStyle;rounded=0;orthogonalLoop=1;jettySize=auto;html=1;" edge="1" parent="1" source="Hzh83zoLfARzIkc0ZNQP-5" target="Hzh83zoLfARzIkc0ZNQP-10">
          <mxGeometry relative="1" as="geometry" />
        </mxCell>
        <mxCell id="Hzh83zoLfARzIkc0ZNQP-5" value="Impl" style="whiteSpace=wrap;html=1;fillColor=#60a917;strokeColor=#2D7600;fontColor=#ffffff;rounded=1;" vertex="1" parent="1">
          <mxGeometry x="-160" y="230" width="120" height="60" as="geometry" />
        </mxCell>
        <mxCell id="Hzh83zoLfARzIkc0ZNQP-10" value="LoanServiceImpl" style="ellipse;whiteSpace=wrap;html=1;fillColor=#a20025;strokeColor=#6F0000;fontColor=#ffffff;rounded=1;" vertex="1" parent="1">
          <mxGeometry x="-180" y="360" width="120" height="30" as="geometry" />
        </mxCell>
        <mxCell id="Hzh83zoLfARzIkc0ZNQP-12" value="Class" style="rounded=1;whiteSpace=wrap;html=1;fillColor=#a20025;fontColor=#ffffff;strokeColor=#6F0000;" vertex="1" parent="1">
          <mxGeometry x="-465" y="650" width="80" height="30" as="geometry" />
        </mxCell>
        <mxCell id="Hzh83zoLfARzIkc0ZNQP-13" value="Interface" style="rounded=1;whiteSpace=wrap;html=1;fillColor=#d80073;fontColor=#ffffff;strokeColor=#A50040;" vertex="1" parent="1">
          <mxGeometry x="-465" y="700" width="80" height="30" as="geometry" />
        </mxCell>
        <mxCell id="Hzh83zoLfARzIkc0ZNQP-14" value="ILoanServcie" style="ellipse;whiteSpace=wrap;html=1;fillColor=#d80073;strokeColor=#A50040;fontColor=#ffffff;rounded=1;" vertex="1" parent="1">
          <mxGeometry x="260" y="220" width="130" height="30" as="geometry" />
        </mxCell>
        <mxCell id="Hzh83zoLfARzIkc0ZNQP-17" value="" style="shape=flexArrow;endArrow=classic;startArrow=classic;html=1;rounded=0;exitX=0.5;exitY=0;exitDx=0;exitDy=0;entryX=0.5;entryY=1;entryDx=0;entryDy=0;fillColor=#e3c800;strokeColor=#B09500;" edge="1" parent="1" source="I8hgk64ySSG1_GCGq1iT-2" target="I8hgk64ySSG1_GCGq1iT-1">
          <mxGeometry width="100" height="100" relative="1" as="geometry">
            <mxPoint x="-30" y="260" as="sourcePoint" />
            <mxPoint x="70" y="160" as="targetPoint" />
          </mxGeometry>
        </mxCell>
        <mxCell id="Hzh83zoLfARzIkc0ZNQP-19" value="" style="shape=flexArrow;endArrow=classic;startArrow=classic;html=1;rounded=0;entryX=0.5;entryY=1;entryDx=0;entryDy=0;entryPerimeter=0;fillColor=#e3c800;strokeColor=#B09500;" edge="1" parent="1" source="I8hgk64ySSG1_GCGq1iT-3" target="I8hgk64ySSG1_GCGq1iT-2">
          <mxGeometry width="100" height="100" relative="1" as="geometry">
            <mxPoint x="110" y="240" as="sourcePoint" />
            <mxPoint x="110" y="170" as="targetPoint" />
          </mxGeometry>
        </mxCell>
        <mxCell id="Hzh83zoLfARzIkc0ZNQP-20" value="" style="shape=flexArrow;endArrow=classic;startArrow=classic;html=1;rounded=0;entryX=0.5;entryY=1;entryDx=0;entryDy=0;exitX=0.5;exitY=0;exitDx=0;exitDy=0;fillColor=#e3c800;strokeColor=#B09500;" edge="1" parent="1" source="Hzh83zoLfARzIkc0ZNQP-2" target="I8hgk64ySSG1_GCGq1iT-3">
          <mxGeometry width="100" height="100" relative="1" as="geometry">
            <mxPoint x="110" y="380" as="sourcePoint" />
            <mxPoint x="110" y="300" as="targetPoint" />
          </mxGeometry>
        </mxCell>
        <mxCell id="Hzh83zoLfARzIkc0ZNQP-21" value="" style="shape=flexArrow;endArrow=classic;startArrow=classic;html=1;rounded=0;entryX=0.5;entryY=1;entryDx=0;entryDy=0;exitX=0.5;exitY=0;exitDx=0;exitDy=0;fillColor=#e3c800;strokeColor=#B09500;" edge="1" parent="1" source="Hzh83zoLfARzIkc0ZNQP-1" target="Hzh83zoLfARzIkc0ZNQP-2">
          <mxGeometry width="100" height="100" relative="1" as="geometry">
            <mxPoint x="110" y="530" as="sourcePoint" />
            <mxPoint x="110" y="440" as="targetPoint" />
          </mxGeometry>
        </mxCell>
        <mxCell id="Hzh83zoLfARzIkc0ZNQP-24" value="" style="shape=flexArrow;endArrow=classic;startArrow=classic;html=1;rounded=0;exitX=0.5;exitY=0;exitDx=0;exitDy=0;entryX=0.5;entryY=1;entryDx=0;entryDy=0;fillColor=#e3c800;strokeColor=#B09500;" edge="1" parent="1" source="I8hgk64ySSG1_GCGq1iT-1" target="Hzh83zoLfARzIkc0ZNQP-25">
          <mxGeometry width="100" height="100" relative="1" as="geometry">
            <mxPoint x="110" y="240" as="sourcePoint" />
            <mxPoint x="110" y="170" as="targetPoint" />
          </mxGeometry>
        </mxCell>
        <mxCell id="Hzh83zoLfARzIkc0ZNQP-25" value="Client" style="shape=parallelogram;perimeter=parallelogramPerimeter;whiteSpace=wrap;html=1;fixedSize=1;fillColor=#e51400;fontColor=#ffffff;strokeColor=#B20000;" vertex="1" parent="1">
          <mxGeometry x="40" y="-40" width="120" height="60" as="geometry" />
        </mxCell>
        <mxCell id="Hzh83zoLfARzIkc0ZNQP-29" style="edgeStyle=orthogonalEdgeStyle;rounded=0;orthogonalLoop=1;jettySize=auto;html=1;exitX=1;exitY=0.5;exitDx=0;exitDy=0;entryX=0;entryY=0.5;entryDx=0;entryDy=0;" edge="1" parent="1" source="Hzh83zoLfARzIkc0ZNQP-26" target="Hzh83zoLfARzIkc0ZNQP-28">
          <mxGeometry relative="1" as="geometry" />
        </mxCell>
        <mxCell id="Hzh83zoLfARzIkc0ZNQP-26" value="Mapper" style="rounded=1;whiteSpace=wrap;html=1;fillColor=#008a00;fontColor=#ffffff;strokeColor=#005700;" vertex="1" parent="1">
          <mxGeometry x="230" y="310" width="120" height="40" as="geometry" />
        </mxCell>
        <mxCell id="Hzh83zoLfARzIkc0ZNQP-27" value="" style="shape=flexArrow;endArrow=classic;startArrow=classic;html=1;rounded=0;fillColor=#e3c800;strokeColor=#B09500;exitX=0;exitY=0;exitDx=0;exitDy=0;" edge="1" parent="1" source="Hzh83zoLfARzIkc0ZNQP-26">
          <mxGeometry width="100" height="100" relative="1" as="geometry">
            <mxPoint x="110" y="380" as="sourcePoint" />
            <mxPoint x="160" y="290" as="targetPoint" />
          </mxGeometry>
        </mxCell>
        <mxCell id="Hzh83zoLfARzIkc0ZNQP-28" value="LoansMapper" style="ellipse;whiteSpace=wrap;html=1;fillColor=#a20025;strokeColor=#6F0000;fontColor=#ffffff;rounded=1;" vertex="1" parent="1">
          <mxGeometry x="420" y="320" width="120" height="30" as="geometry" />
        </mxCell>
        <mxCell id="Hzh83zoLfARzIkc0ZNQP-30" value="LoansRepository" style="ellipse;whiteSpace=wrap;html=1;fillColor=#a20025;strokeColor=#6F0000;fontColor=#ffffff;rounded=1;" vertex="1" parent="1">
          <mxGeometry x="240" y="410" width="120" height="30" as="geometry" />
        </mxCell>
        <mxCell id="Hzh83zoLfARzIkc0ZNQP-38" style="edgeStyle=orthogonalEdgeStyle;rounded=0;orthogonalLoop=1;jettySize=auto;html=1;exitX=1;exitY=0.5;exitDx=0;exitDy=0;entryX=0;entryY=0.5;entryDx=0;entryDy=0;" edge="1" parent="1" source="Hzh83zoLfARzIkc0ZNQP-32" target="Hzh83zoLfARzIkc0ZNQP-35">
          <mxGeometry relative="1" as="geometry" />
        </mxCell>
        <mxCell id="Hzh83zoLfARzIkc0ZNQP-55" style="edgeStyle=orthogonalEdgeStyle;rounded=0;orthogonalLoop=1;jettySize=auto;html=1;exitX=0;exitY=0.5;exitDx=0;exitDy=0;entryX=1;entryY=0;entryDx=0;entryDy=0;" edge="1" parent="1" source="Hzh83zoLfARzIkc0ZNQP-32" target="Hzh83zoLfARzIkc0ZNQP-33">
          <mxGeometry relative="1" as="geometry" />
        </mxCell>
        <mxCell id="Hzh83zoLfARzIkc0ZNQP-56" style="edgeStyle=orthogonalEdgeStyle;rounded=0;orthogonalLoop=1;jettySize=auto;html=1;exitX=1;exitY=1;exitDx=0;exitDy=0;entryX=0;entryY=0.5;entryDx=0;entryDy=0;" edge="1" parent="1" source="Hzh83zoLfARzIkc0ZNQP-32" target="Hzh83zoLfARzIkc0ZNQP-34">
          <mxGeometry relative="1" as="geometry" />
        </mxCell>
        <mxCell id="Hzh83zoLfARzIkc0ZNQP-32" value="Exception" style="rounded=1;whiteSpace=wrap;html=1;fillColor=#008a00;fontColor=#ffffff;strokeColor=#005700;" vertex="1" parent="1">
          <mxGeometry x="40" y="770" width="120" height="40" as="geometry" />
        </mxCell>
        <mxCell id="Hzh83zoLfARzIkc0ZNQP-33" value="GlobalExceptionHandler" style="ellipse;whiteSpace=wrap;html=1;fillColor=#a20025;strokeColor=#6F0000;fontColor=#ffffff;rounded=1;" vertex="1" parent="1">
          <mxGeometry x="-190" y="790" width="190" height="30" as="geometry" />
        </mxCell>
        <mxCell id="Hzh83zoLfARzIkc0ZNQP-34" value="LoanAlreadyExistException" style="ellipse;whiteSpace=wrap;html=1;fillColor=#a20025;strokeColor=#6F0000;fontColor=#ffffff;rounded=1;" vertex="1" parent="1">
          <mxGeometry x="230" y="820" width="200" height="30" as="geometry" />
        </mxCell>
        <mxCell id="Hzh83zoLfARzIkc0ZNQP-35" value="ResourceNotFoundException" style="ellipse;whiteSpace=wrap;html=1;fillColor=#a20025;strokeColor=#6F0000;fontColor=#ffffff;rounded=1;" vertex="1" parent="1">
          <mxGeometry x="250" y="760" width="210" height="30" as="geometry" />
        </mxCell>
        <mxCell id="Hzh83zoLfARzIkc0ZNQP-39" value="Loans" style="ellipse;whiteSpace=wrap;html=1;fillColor=#a20025;strokeColor=#6F0000;fontColor=#ffffff;rounded=1;" vertex="1" parent="1">
          <mxGeometry x="220" y="700" width="80" height="30" as="geometry" />
        </mxCell>
        <mxCell id="Hzh83zoLfARzIkc0ZNQP-40" value="BasicEntity" style="ellipse;whiteSpace=wrap;html=1;fillColor=#a20025;strokeColor=#6F0000;fontColor=#ffffff;rounded=1;" vertex="1" parent="1">
          <mxGeometry x="210" y="650" width="110" height="30" as="geometry" />
        </mxCell>
        <mxCell id="Hzh83zoLfARzIkc0ZNQP-43" value="ErrorResponseDto" style="ellipse;whiteSpace=wrap;html=1;fillColor=#a20025;strokeColor=#6F0000;fontColor=#ffffff;rounded=1;" vertex="1" parent="1">
          <mxGeometry x="205" y="540" width="110" height="30" as="geometry" />
        </mxCell>
        <mxCell id="Hzh83zoLfARzIkc0ZNQP-44" value="LoansDto" style="ellipse;whiteSpace=wrap;html=1;fillColor=#a20025;strokeColor=#6F0000;fontColor=#ffffff;rounded=1;" vertex="1" parent="1">
          <mxGeometry x="-160" y="520" width="110" height="30" as="geometry" />
        </mxCell>
        <mxCell id="Hzh83zoLfARzIkc0ZNQP-45" value="ResponseDto" style="ellipse;whiteSpace=wrap;html=1;fillColor=#a20025;strokeColor=#6F0000;fontColor=#ffffff;rounded=1;" vertex="1" parent="1">
          <mxGeometry x="-150" y="580" width="110" height="30" as="geometry" />
        </mxCell>
        <mxCell id="Hzh83zoLfARzIkc0ZNQP-54" style="edgeStyle=orthogonalEdgeStyle;rounded=0;orthogonalLoop=1;jettySize=auto;html=1;exitX=1;exitY=0.25;exitDx=0;exitDy=0;entryX=0;entryY=0.5;entryDx=0;entryDy=0;" edge="1" parent="1" source="Hzh83zoLfARzIkc0ZNQP-49" target="Hzh83zoLfARzIkc0ZNQP-51">
          <mxGeometry relative="1" as="geometry" />
        </mxCell>
        <mxCell id="Hzh83zoLfARzIkc0ZNQP-49" value="Constant" style="rounded=1;whiteSpace=wrap;html=1;fillColor=#008a00;fontColor=#ffffff;strokeColor=#005700;" vertex="1" parent="1">
          <mxGeometry x="40" y="890" width="120" height="40" as="geometry" />
        </mxCell>
        <mxCell id="Hzh83zoLfARzIkc0ZNQP-53" style="edgeStyle=orthogonalEdgeStyle;rounded=0;orthogonalLoop=1;jettySize=auto;html=1;exitX=1;exitY=0.5;exitDx=0;exitDy=0;entryX=0;entryY=0.5;entryDx=0;entryDy=0;" edge="1" parent="1" source="Hzh83zoLfARzIkc0ZNQP-50" target="Hzh83zoLfARzIkc0ZNQP-52">
          <mxGeometry relative="1" as="geometry" />
        </mxCell>
        <mxCell id="Hzh83zoLfARzIkc0ZNQP-50" value="Audit" style="rounded=1;whiteSpace=wrap;html=1;fillColor=#008a00;fontColor=#ffffff;strokeColor=#005700;" vertex="1" parent="1">
          <mxGeometry x="40" y="970" width="120" height="40" as="geometry" />
        </mxCell>
        <mxCell id="Hzh83zoLfARzIkc0ZNQP-51" value="LoansConstant" style="ellipse;whiteSpace=wrap;html=1;fillColor=#a20025;strokeColor=#6F0000;fontColor=#ffffff;rounded=1;" vertex="1" parent="1">
          <mxGeometry x="215" y="880" width="120" height="30" as="geometry" />
        </mxCell>
        <mxCell id="Hzh83zoLfARzIkc0ZNQP-52" value="AuditAwareImpl" style="ellipse;whiteSpace=wrap;html=1;fillColor=#a20025;strokeColor=#6F0000;fontColor=#ffffff;rounded=1;" vertex="1" parent="1">
          <mxGeometry x="215" y="980" width="130" height="30" as="geometry" />
        </mxCell>
      </root>
    </mxGraphModel>
  </diagram>
</mxfile>
